<?xml version="1.0" encoding="utf-8"?>
<!-- Generator: Adobe Illustrator 28.4.1, SVG Export Plug-In . SVG Version: 6.00 Build 0)  -->
<svg version="1.1" id="Layer_1" xmlns="http://www.w3.org/2000/svg" xmlns:xlink="http://www.w3.org/1999/xlink" x="0px" y="0px"
	 viewBox="0 0 5085.12 2510.94" style="enable-background:new 0 0 5085.12 2510.94;" xml:space="preserve">
<g>
	<path d="M24.77,1075.89c0-15.56-0.1-30.85,0.05-46.14c0.06-5.65-1.6-10.44-5.44-14.52c-1.83-1.94-3.55-3.99-5.5-5.8
		c-10.24-9.49-11.04-20.47-5.97-31.78c6.09-5.74,15.33-1.36,21.16-9.46c-5.59-0.92-10.1-1.35-14.44-2.43
		c-9.26-2.31-13.41-7.26-14.27-16.75c-1.05-11.62-0.45-22.59,9.98-30.71c7.22-5.63,11.14-13.15,9.83-22.73
		c-0.18-1.3,0.01-2.67,0.17-3.99c1.31-11.1,5.06-16.7,15.59-17.52c15.19-1.19,30.53-0.65,45.8-0.38c6.36,0.11,10.82,4.49,15.11,8.85
		c9.82,9.97,20.05,19.54,29.64,29.73c7.26,7.72,15.11,12.06,26.25,11.28c10.59-0.74,20.89-1.96,31.39-3.95
		c29.34-5.56,55.74-17.02,79.51-34.77c10.46-7.81,21.68-12.52,34.98-12.32c5.19,0.08,10.47-1.23,15.6-2.38
		c18.01-4.01,35.37-4.21,52.02,5.65c10.27,6.08,21.49,10.54,31.87,16.45c22.65,12.89,47.59,20.32,71.69,29.49
		c11.96,4.55,25.31,6.9,38.99,6.55c33.3-0.85,66.63-0.37,99.95-0.19c7.6,0.04,14.86-0.54,19.97-6.81
		c5.58-6.86,14.31-6.59,21.12-10.02c3.13-10.33,6.12-20.44,9.25-30.51c4.98-16.02,2.15-30.35-9.61-42.43
		c-8.79-9.03-16.98-18.76-28.36-24.97c-6.29-3.43-9.85-8.83-8.25-17.77c2.35-0.84,5.3-2.83,8.22-2.78c17.18,0.26,34.36-2,51.37,4.38
		c10.31,3.87,21.97,5.2,33.1,5.6c16.23,0.58,26.67,10.11,37.02,20.45c2.25,2.25,3.95,5.07,5.79,7.48c8.14-2.67,15.3-5.95,22.8-7.23
		c7.13-1.21,14.65,0.1,21.94-0.44c14.37-1.06,25.75,4.44,35.61,14.46c15.43,15.67,31.08,31.13,46.66,46.65
		c3.3,3.29,6.58,6.62,10.07,9.72c6.7,5.96,14.51,9.43,23.58,9.2c9.23-0.23,18.52,1.18,27.58-2.75c4.09-1.77,9.12-1.47,13.75-1.91
		c11.78-1.12,20.35,3.97,27.05,13.47c4.95,7.02,10.38,13.75,16.04,20.23c8.46,9.69,17.96,17.94,32.05,18.06
		c6.93,11.1,4.95,20.35-3.72,28.88c-8.55,8.41-16.97,16.96-25.5,25.39c-13.6,13.45-21.83,29.61-26.57,48.16
		c-3.83,15-5.75,29.94-4.96,45.33c0.82,16,10.31,26.53,26.6,25.42c20.59-1.4,35.95,6.44,49.12,21.16
		c5.77,6.44,12.28,12.22,18.45,18.3c4,3.94,8.87,5.07,14.38,5.85c13.08,1.84,25.61-2.01,37.06-6.04
		c19.96-7.03,39.93-9.12,60.64-8.45c3.88,0.13,7.8-0.77,11.34-1.15c1.87-10.39,3.75-20.01,5.27-29.67c0.51-3.26,1.13-7.05-0.01-9.92
		c-6.29-15.7-1.93-33.15-8.32-48.78c-0.73-1.79-0.83-3.93-0.87-5.92c-0.31-18.74-5.23-36.63-9.61-54.66
		c-1.24-5.11-1.42-10.47-2.06-15.5c-29.66-7.7-32.79-23.75-26.14-46.59c16.76-12.46,33.97-11.71,50.82-0.34
		c6.88-2.37,10.49-6.81,11.49-13.21c0.78-5.05-1.93-8.95-4.98-12.6c-8.06-9.65-16.17-19.25-24.17-28.95
		c-10.88-13.2-24.53-14.1-39.68-9.38c-4.24,1.32-8.76,1.76-13.22,2.61c-8.23-16.38,4.36-29.03,4.41-45.32
		c-1.76-5.41-7.2-11.37-14.04-13.18c-13.9-3.67-24.54-12.97-38.08-18.91c1.56-24.45-16.67-38.92-29.4-56.28
		c-3.12-4.26-7.75-7.41-10.9-11.66c-2.24-3.02-3.8-6.91-4.49-10.63c-0.95-5.16,2.19-9.81,7.22-10.08
		c7.16-0.38,14.39,0.51,23.15,0.94c5.16-2.32,8.78-7.33,8.89-14.82c0.04-2.65,0.29-5.34,0.79-7.94c1.38-7.25,5.5-12.39,12.98-13.27
		c15.24-1.8,30.57-2.41,45.71,0.97c13.46,3.01,26.84,6.4,41.53,9.93c0,4.96,0,10.53,0,18.25c16.64-9.74,27.21-22.78,38.09-35.57
		c-3.27-8.58-8.65-12.51-16.89-12.52c-6-0.01-12,0.06-17.99-0.1c-17.6-0.48-26.78-8.68-28.31-26.45
		c-0.91-10.6-0.77-21.32-0.42-31.97c0.26-7.98-2.53-14.15-8.15-19.51c-8.13-7.76-17.77-10.12-27.11-3.66
		c-13.6,9.4-27.99,6.22-42.38,5.13c-2.15-0.16-4.33-2.6-6.12-4.35c-2.29-2.24-4.21-4.87-6.04-7.03
		c-21.1,6.47-26.52,11.86-49.24,48.74c-4.31,0.22-9.44,0.48-16.61,0.85c-6.51-7.07-13.39-15.27-21.05-22.66
		c-8.01-7.73-11.53-16.98-8.16-27.15c4.24-12.8-0.41-21.89-8.93-30.38c-4.72-4.7-9.51-9.35-14.1-14.18
		c-7.04-7.41-14.28-13.67-25.75-12.72c-6.34,0.53-11.14-3.54-14.73-8.86c-3.33-4.95-6.74-9.89-10.58-14.44
		c-9.95-11.77-10-25.07-2.86-37.12c4.78-8.07,6.42-15.67,6.17-24.42c-0.15-5.33,0.26-10.68-0.09-15.99
		c-0.67-10.39,0.69-19.84,9.43-26.99c5.81-4.75,5.95-11.61,5.69-18.37c-0.57-14.77,7.52-20.55,21.81-12.1
		c9.54,5.63,19.31,10.86,29.29,16.45c4.22-1.09,3.14-4.98,3.32-7.96c0.31-5.32-0.08-10.68,0.26-15.99
		c0.87-13.28,5.82-18.75,19.25-21.28c4.51-0.85,9.13-1.05,14.36-1.62c1.61-14.08,8.84-23.23,20.78-30.05
		c7.27-4.15,13.88-10.83,18.48-17.89c4.98-7.63,11.87-12.36,18.68-17.42c7.22-5.37,13.03-5.15,20.07,0.41
		c5.68,4.48,10.87,9.58,16.9,14.97c4.31-3.18,7.93-5.85,11.56-8.51c11.85-8.68,22.52-7.05,31.99,5.75c3.9,5.27,8.15,9.14,14.7,8.49
		c15.59-1.55,26.13,7.98,37.24,16.3c2.64,1.98,4.94,4.5,7.1,7.02c9.46,11.05,20.12,18.77,35.94,17.81
		c5.46-0.33,11.34,3.13,16.74,5.52c8.45,3.75,16.64,8.07,25.05,12.21c10.02-4.62,16.67-12.02,21.75-20.59
		c3.16-5.33,6.02-11.21,12.26-12.12c9.76-1.42,19.93-2.83,29.1,2.97c3.29,2.08,6.42,4.41,10.27,7.06c3.14-2.01,6.14-3.41,8.49-5.52
		c8-7.18,17.35-5.85,26.49-4.06c2.88,0.56,5.67,3.35,7.75,5.76c2.57,2.99,4.32,6.68,6.5,10.02c8.53,13.1,21.92,13.86,35.4,13.14
		c3.48-0.19,7.48-3.09,10.03-5.87c10.79-11.76,23.25-10.87,36.51-5.78c1.23,0.47,2.35,1.24,3.54,1.83
		c20.55,10.1,30.16,2.32,42.9-15.83c3.41-4.85,1.74-10.12-1.47-14.93c-9.18-13.76-22.85-19.57-38.45-22.14
		c-5.15-0.85-10.28-1.83-14.52-2.6c-5.34-9.59-7.08-18.39-4.89-28.71c5.74-4.35,12.09-9.06,18.31-13.92
		c6.2-4.84,8.93-10.88,8.19-19.13c-0.87-9.82-2.14-19.9,1.69-29.02c5.97-5.31,12.75-5.05,19.4-5.13c6.92-0.08,12.97-2.07,17.79-7.14
		c0.49-6.07-3.16-8.63-8.23-9.24c-5.89-0.71-11.85-0.74-17.51-1.04c-4.7-11.58-4.7-11.58,7.32-22.71
		c-6.75-1.26-13.09-2.43-18.88-3.51c-3.4-7.55,0.49-12.23,3.66-17.39c3.09-5.03,5.38-10.56,8.05-15.93c4.89-3,10.07-3.16,15.22-0.86
		c6.48,2.9,12.66,2.69,19.33,0.21c4.25-1.58,9.14-2.11,13.72-2c18.66,0.45,37.03-1.62,55.27-5.23c15.53-3.08,30.96-6.8,46.6-9.13
		c9.89-1.47,17.85-5.46,23.73-13.09c9.31-12.1,22.47-15.43,36.46-17.74c20.23-3.33,40.38-7.16,60.01-13.19
		c17.82-5.47,19.54-7.13,28.77-25.6c8.41-1.74,18.24-1.01,25.36-8.34c1.3-1.34,3.47-2.46,5.3-2.55c15.85-0.8,32.12-4.06,47.16,3.05
		c5.78,2.73,10.59,3.59,16.87,2.91c12.6-1.37,13.09,1.59,20.8,13.47c9.76,15.05,11.18,30.82,10.27,47.56
		c-0.55,10.24,2.18,18.34,13.52,22.27c4.85-2.55,9.78-6.36,15.33-7.78c7.62-1.95,15.7-2.1,24.74-3.15c3,5.67,5.99,11.31,9.49,17.92
		c7.18-1.96,14.23-3.52,22.17,1.13c5.71,3.35,14.1,2.12,22.52,3.07c0.29,4.1,1.26,7.91,0.64,11.45c-0.89,5.08-4.84,9.7-1.41,16.03
		c10.46,3.37,21.61,1.55,33.15,0.95c1.11-3.46,2.28-6.53,3.09-9.71c1.78-7.02,6.01-11.01,12.89-13.81
		c17.79-7.23,35.73-13.95,53.98-19.94c6.81-2.24,12.97-6.4,19.55-9.41c6.06-2.78,10.99,0.18,10.72,6.84
		c-0.29,7.21-1.59,14.38-2.71,23.74c6.65,6.89,14.14,15.3,22.31,22.97c12.79,11.99,22.53,25.76,29.89,41.8
		c12.45,27.14,26.86,53.33,43.47,78.19c12.87,19.25,26.24,38.17,39.47,57.17c1.51,2.17,3.43,4.1,5.39,5.89
		c3.93,3.58,8.9,3.73,12.5-0.13c3.14-3.35,5.77-7.23,8.29-11.1c1.43-2.2,2.14-4.87,3.22-7.31c1.05-2.38,2.17-4.73,3.16-6.88
		c15.95-0.05,16.5,0.47,21.55,20.7c4.32,1.43,9.91,2.06,13.9,4.93c4.11,2.95,6.43,8.27,9.93,12.21
		c11.7,13.16,23.94,14.72,35.88,1.81c15.47-16.72,33.84-12.41,52.02-9.95c4.55,0.62,9.09,5.36,12.5,9.21
		c3.45,3.9,6.87,8.76,7.89,13.69c2.98,14.42,12.91,23.05,23.99,30.51c5.74,3.86,10.7,7.72,13.39,14.18
		c0.49,1.19,1.65,2.08,2.41,3.17c11.76,16.81,27.24,22.48,46.81,15.49c9.94-3.55,17.8-1.45,24.95,6.62
		c6.56,7.4,14.25,13.79,21.32,20.5c8.42-1.25,14.83-4.2,20.8-8.63c9.77-7.25,20.17-12.69,33.04-11.53c3.08,0.28,7.21-0.45,9.35-2.38
		c7.68-6.93,16.76-7.36,26.2-7.38c1.88,0,3.75-1.07,6.31-1.86c0.88-5,1.78-10.1,2.47-14.01c24.79-11.7,49.01-22.23,72.29-34.53
		c10.99-5.8,20.26-14.91,30.17-22.7c9.91-7.8,18.66-8.54,29.06-2.01c1.12,0.7,2.12,1.61,3.16,2.45
		c11.81,9.57,24.91,14.58,40.48,12.9c5.79-0.62,11.81,0.91,18.24,1.5c2.98,6.48,5.65,12.49,8.5,18.41
		c1.71,3.55,3.38,7.19,5.64,10.38c8.49,11.96,20.44,18.29,34.54,14.21c13.42-3.88,25.83-3.1,38.85,0.28
		c4.37,1.14,9.28,0.12,13.95,0.22c5.99,0.12,12.11-0.34,17.93,0.75c5.03,0.94,9.72,3.68,14.9,5.76c1.42-3.23,2.7-6.17,4.45-10.16
		c3.26-0.44,7.13-0.79,10.95-1.5c13.49-2.51,22.7-12.98,21.63-26.57c-0.67-8.46-2.73-17.2-6.12-24.96
		c-5.37-12.32-3.78-24.86-3.29-37.38c0.14-3.66,2.39-7.57,4.57-10.75c6.76-9.82,14.69-18.91,20.74-29.13
		c4.71-7.95,11.05-11.17,19.47-11.43c9.29-0.29,18.6-0.07,28.57-0.07c1.69,2.98,3.4,5.7,4.83,8.55
		c4.02,8.01,10.43,11.65,19.37,11.41c7.32-0.2,14.66,0.17,21.99-0.02c25.89-0.65,43.78,13.79,58.89,32.28
		c4.4,5.39,6.38,13.12,8.3,20.11c6.97,25.36,23.84,40.62,48.05,48.9c5,1.71,9.75,4.16,14.77,5.78c16.45,5.31,32.58,5.43,47.55-4.49
		c3.84-2.55,7.29-5.87,10.39-9.31c4.8-5.32,10.51-7.89,17.62-7.73c6.66,0.14,13.33-0.03,19.98,0.19c2.63,0.09,5.65,0.18,7.77,1.47
		c10.76,6.5,21.83,12.68,31.7,20.37c6.96,5.43,14.03,10.46,22.29,12.81c6.97,1.98,11.76,5.29,15.35,11.46
		c7.83,13.47,19.99,23.11,31.11,33.56c6.93,6.52,15.65,9.83,25.48,9.71c11.99-0.15,24.02,0.52,35.97-0.24
		c7.84-0.5,15.65-2.55,23.31-4.52c20.48-5.25,41.69-7.31,61.74-14.38c7.5-2.64,15.24-4.69,22.56-7.75
		c18.51-7.74,36.22-16.77,49.12-32.99c2.47-3.11,5.5-5.81,8.5-8.45c8.43-7.42,16.57-7.51,24.73-0.06
		c4.92,4.48,9.66,9.21,14.11,14.16c6.23,6.93,13.61,9.99,23,9.37c9.19-0.61,18.27,0.72,26.5-5.99c6.07-4.94,13.52-3.66,20.54,0.33
		c9.76,5.55,20.53,9.55,29.63,15.98c6.93,4.89,14.7,6.35,22.1,8.5c13.62,3.96,26.43,0.22,36.86-9.6
		c9.19-8.65,17.92-17.79,27.06-26.92c-0.71-4.4-1.45-8.22-1.93-12.06c-1.01-8.09,0.33-15.4,4.26-22.98
		c14.36-27.73,27.79-55.95,41.84-83.85c2.97-5.9,6.92-11.34,10.64-16.84c6.66-9.83,9.44-20.27,5.72-32.99
		c-6.97-0.93-13.99-1.87-21.16-2.82c-3.51-9.86-1.86-18.09,5.97-23.65c8.59-6.1,17.51-12.7,27.32-15.94
		c28.92-9.56,58.1-18.6,87.7-25.71c12.6-3.03,26.49-0.95,39.78-0.69c3.09,0.06,6.41,1.74,9.14,3.45
		c6.72,4.22,13.16,8.88,20.98,14.23c3.2-0.64,7.6-1.71,12.06-2.35c6.09-0.87,11.95-0.21,17.11,3.65c2.13,1.59,4.25,4,6.61,4.33
		c14.01,1.94,18.77,13.94,25.34,23.5c2.76,4.01,3.56,10.01,3.58,15.11c0.04,7.61,2.2,14.38,5.19,21.09
		c6.47,14.53,12.91,29.08,19.43,43.59c1.36,3.03,2.64,6.21,4.61,8.83c16.8,22.35,22.88,48.95,29.69,75.19
		c3,11.54,4.86,23.37,7.28,35.06c2.18,10.51,11.17,19.4,22.15,19.56c14.38,0.2,27.36,4.6,40.07,10.42
		c6.17,2.82,12.33,4.59,19.21,4.44c9.99-0.22,17.5,3.44,22.88,12.86c7.08,12.39,17.49,21.72,31.28,25.24
		c4.31,5.76,4.62,11.82,4.33,17.79c-1.26,25.68,13.74,42.1,32.23,56.2c7.45,5.68,16.87,4.24,25.01,1.76
		c11.35-3.46,22.3-8.36,33.19-13.17c14.53-6.43,28.89-13.27,43.22-20.14c4.16-2,7.8-5.13,12.02-6.97c3.43-1.49,7.36-1.83,10.93-2.64
		c6.3,17.9,5.19,36.73-2.66,50.49c-3.28,5.75-6.78,11.37-10.22,17.02c-13.34,21.93-19.21,46.24-23.82,71.18
		c-2.76,14.95-7.09,29.69-11.83,44.15c-1.99,6.07-6.36,11.65-10.61,16.63c-5.19,6.09-15.01,6.2-21.48,1.08
		c-2.08-1.65-3.8-3.75-5.82-5.47c-12.71-10.81-26.64-10.45-39.12,0.95c-0.98,0.9-1.82,1.98-2.88,2.76
		c-20.85,15.37-22.36,35.9-15.86,58.7c2.36,8.28,4.76,16.6,6.28,25.06c1.16,6.5,1.23,13.23,1.31,19.87
		c0.08,6.94-2.46,12.9-7.66,17.8c-6.31,5.94-12.32,12.18-18.46,18.29c-6.62,6.58-11.95,13.68-16,22.49
		c-4.61,10.03-12.04,18.97-19.19,27.6c-11.68,14.08-19.12,30.21-24.87,47.26c-5.1,15.12-11.19,29.68-18.9,43.75
		c-6.21,11.33-15.42,17.99-26.58,22.86c-4.23,1.85-8.63,3.84-13.12,4.43c-14.96,1.96-22.72,12.41-30,23.4
		c1.01,10.42,6.26,17.88,12.95,24.65c20.53,20.79,37.08,45.23,59.25,64.56c3.38,2.95,5.57,7.4,7.88,11.4
		c19.76,34.13,18.86,34.17,20.05,73.35c0.62,20.32-5.85,35.57-20.23,49.59c-11.77,11.48-25.32,19.22-39.74,26
		c-18.53,8.72-37.26,17.02-55.91,25.47c-2.4,1.09-4.82,2.41-7.36,2.89c-18.39,3.44-25.01-5.89-25.25-19.26
		c-0.35-19.58,2.86-38.14,10.76-56.07c2.35-5.33,4.02-11.4,4.18-17.19c0.52-18.65,0.02-37.33,0.27-55.99
		c0.09-7.14-2.06-13.03-7.07-17.99c-3.31-3.28-6.7-6.49-9.9-9.89c-5.31-5.64-11.48-8.37-19.48-8.17c-7.14,0.18-14.64,1.77-21.62-2
		c-2.94-7.53-1.63-14.13,2.91-20.7c3.72-5.39,6.54-11.41,9.82-17.25c-9.73-34.3-32.44-54.69-65.36-63.48
		c-19.2-5.13-36.72,2.21-52.22,13.45c-10.72,7.77-20.73,16.54-30.87,25.07c-7.58,6.38-15.83,5.33-24.96,3.5
		c-3.53-14.83-3.38-29.38-0.24-43.66c1.04-4.74,5.37-8.94,8.7-12.96c7.19-8.67,10.21-18.47,9.49-29.64
		c-0.47-7.27-3.29-12.74-11.29-16.04c-2.72,1.92-6.18,3.8-8.96,6.4c-8.25,7.76-16.35,15.69-24.25,23.81
		c-3.85,3.95-7.97,7.08-13.49,7.92c-24.12,3.64-37.3,21.33-50.21,39.25c-2.69,3.73-3.98,8.44-6.59,12.24
		c-5.88,8.56-13.13,15.03-24.62,14.16c-3.97-0.3-8.02-0.24-11.98,0.18c-14.12,1.5-20.42,15.12-11.81,26.17
		c7.02,9.01,14.72,17.47,27.91,16.53c1.79-0.13,3.69,1.12,6.34,2.01c0.59,3.71,1.9,7.57,1.65,11.34c-0.57,8.8,3.69,14.82,9.05,21.24
		c9.61,11.5,21.89,11.13,34.65,9.7c2.45-0.28,4.91-1.94,7-3.46c2.68-1.95,5.42-4.08,7.38-6.7c13.04-17.41,31-17.03,48.78-11.86
		c17.68,5.13,34.59,12.92,52.24,19.7c0.8,9.73-2.38,16.19-11.22,19.01c-8.21,2.62-16.49,5.12-24.9,6.93
		c-14.22,3.07-26.36,9.54-35.03,21.25c-7.56,10.22-16.71,18.59-26.55,26.44c-11.66,9.3-18.72,22.38-27.12,34.31
		c-3.02,4.3-5.33,9.1-8.66,14.9c4.67,5.2,9.32,10.76,14.37,15.91c10.27,10.46,20.48,21.01,31.24,30.96
		c11.32,10.48,17.89,23,18.52,38.37c0.47,11.32,5.35,20.38,12.97,28.26c6.49,6.71,12.94,13.46,19.72,19.86
		c5.23,4.94,7.52,10.76,7.42,17.81c-0.09,6.66-0.1,13.34,0.12,20c0.16,4.63-0.29,9.68,1.39,13.77c5.14,12.47,3.47,24.62-0.66,37.88
		c5.59,2.18,10.98,4.27,16.15,6.29c7.01,13.69,0.47,23.28-9.43,31.84c0.48,4.29,0.88,8.16,1.34,12.03
		c0.84,7.02-0.55,13.23-6.24,18.02c-6.14,5.17-7.99,11.96-7.34,19.73c1.02,12.2-5.78,19.74-15.16,26.1
		c-6.02,4.07-11.53,8.92-17.09,13.64c-7.86,6.67-12.91,14.37-13.34,25.53c-0.45,11.89-9.46,20.38-16.54,28.86
		c-8.59,10.3-11.19,23.94-20.79,33.64c-2.57,2.59-1.67,8.87-1.89,13.48c-0.39,7.92,0.63,16.02-4.6,24.89
		c-7.27,1.26-15.57,2.7-24.37,4.23c-1.25,4.41-2.49,8.78-3.37,11.88c-9.23,8.3-17.9,15.54-25.93,23.43
		c-16.65,16.34-32.74,33.24-49.49,49.47c-7.97,7.72-14.31,15.67-13.88,27.49c0.09,2.5-1.28,5.05-1.82,6.98
		c-1.75,1.19-2.77,2.47-3.91,2.57c-23.71,2.19-47.42,4.63-71.18,6.1c-7.75,0.48-14.23,1.95-19.84,7.43
		c-2.82,2.75-6.55,4.55-9.48,7.22c-10.02,9.13-21.98,10.84-35.05,11.49c-13.12,0.66-26.25,3.4-39.12,6.36
		c-11.53,2.66-22.93,5.75-33.99,10.68c-9.46,4.22-19.52,8.33-30.64,8.17c-4.35-0.06-9.04,2.3-13.01,4.55
		c-2.67,1.51-5.82,4.55-6.22,7.28c-2.13,14.52-12.34,26.52-12.59,41.53c-0.01,0.56-0.66,1.12-1.79,2.92
		c-7.69,4.31-16.34,4.88-25.08-0.1c-5.51-8.02-4.76-17.01-3.92-25.42c2.02-20.12-11.05-30.68-25.16-39.56
		c-7.13-4.49-16.46-3.38-24.83,0.97c-18.12,9.42-36.57,18.21-54.76,27.5c-23.72,12.12-41.73,30.28-55.27,53.07
		c-0.34,0.57-0.88,1.14-0.92,1.73c-1.24,19.69-5.65,39.46,7.98,57.53c12.36,16.38,23.12,33.97,34.68,50.96
		c3.33,4.9,6.64,9.91,10.61,14.27c6.27,6.9,13.24,13.15,19.64,19.94c8.32,8.83,17.63,16.11,28.86,20.91
		c4.26,1.82,8.6,3.81,12.28,6.55c4.21,3.14,9.8,6.57,11.17,11c4.09,13.26,13.19,24.59,13.96,39.19c0.45,8.49,2.2,17.27,5.3,25.16
		c3.81,9.71,3.92,19.46,3.95,29.42c0.04,15.33-0.61,30.7,0.19,45.99c0.75,14.23-2.28,27.72-5.97,41.1
		c-1.13,4.1-4.25,8.47-7.72,10.97c-20.43,14.73-41.31,28.84-61.87,43.4c-5.22,3.69-10.84,5.43-16.9,4.78
		c-10.47-1.13-17.87,3.81-24.29,11.07c-3.08,3.49-6.38,6.94-8.68,10.92c-7.3,12.62-17.94,21.14-30.99,27.13
		c-5.42,2.49-10.82,5.18-15.79,8.45c-3.5,2.3-6.8,3.53-11.04,3.55c-9.13,0.02-12.78-2.16-13.72-10.57
		c-0.81-7.26-1.1-14.65-0.72-21.94c0.49-9.34-2.14-16.98-9.28-23.11c-2.52-2.16-4.78-4.64-7.12-7.02
		c-8.76-8.93-18.99-13.61-31.89-13.93c-17.23-0.42-25.16-7.93-26.92-25.41c-0.81-8.05-4.23-13.69-9.53-18.99
		c-8.46-8.46-16.99-16.73-23.3-27.18c-5.94-9.84-15.06-13.96-27.07-13.18c-12.49,0.82-25.09-0.11-38.75-0.29
		c-0.2-5.1-1.46-9.23-0.27-12.46c2.37-6.42,4.31-12.54,2.02-19.3c-15.09-4.91-16.18-4.48-29.61,12.42c1.64,2.9,3.83,6.07,5.32,9.54
		c6.52,15.15,3.63,31.45-7.57,39.9c-3.46,2.61-8.25,3.44-12.38,5.07c-8.04-10.3-10.42-21.14-9.76-32.68
		c0.67-11.71-4.21-17.45-15.7-21.49c-27.4-9.63-26.83-10.57-40.77-36.92c-5.06-9.56-8.03-19.49-10.2-29.92
		c-3.09-14.87-7.3-29.34-8.66-44.75c-1.37-15.4-3.16-32.12-17.4-42.9c-7.73-5.85-6.08-15.73-10.07-24.01
		c-1.95,1.73-4.26,2.77-4.51,4.18c-2.33,13.1-11.76,20.33-21.9,26.89c-10.58,6.83-21.41,13.28-32.03,20.05
		c-15.32,9.75-39,8.68-52.14-3.22c-3.18-2.89-5.98-7.76-6.28-11.91c-0.46-6.41,0.93-13.09,2.36-19.47
		c2.03-9.01,5.51-17.73,7.14-26.79c4.44-24.75-7.52-43.74-23.02-61.05c-7.1-7.93-14.89-15.26-22.5-22.74
		c-7.79-7.65-13.36-16.19-14.57-27.52c-1.01-9.52-5.83-17.62-12.51-24.47c-5.59-5.72-10.83-11.91-17.06-16.85
		c-12.93-10.25-20.47-24.22-27.4-38.48c-2.48-5.11-3.42-11.69-2.9-17.39c1.04-11.26-3.75-19.25-11.48-26.29
		c-3.94-3.58-7.67-7.44-11.91-10.62c-3.99-2.99-8.55-3.43-13.87,0.36c-0.35,5.87-0.56,12.47-1.19,19.03
		c-1.01,10.56-5.47,15.57-15.86,17.38c-4.55,0.79-9.28,0.73-13.93,0.77c-11.99,0.1-23.99-0.07-35.98,0.09
		c-4.63,0.06-9.7-0.37-13.79,1.32c-12.69,5.25-24.67,3.47-37-2.73c-9.12,7.5-19.09,11.19-31.02,11.25
		c-12.35,0.07-26.37,15.35-27.28,27.63c-0.44,5.97-0.35,12-0.13,17.99c0.64,17.19-9.34,27.32-23.66,33.1
		c-14.3,5.78-27.71,13-40.25,21.67c-9.77,6.76-17.96,14.86-22.6,27c-5.06,13.23-17.19,21.85-28.06,30.45
		c-15.56,12.32-32.6,22.8-47.9,35.42c-12.13,10.01-24.92,19.86-29.94,36.44c-2.33,7.71-9.07,12.96-17.44,15.04
		c-6.9,1.72-15.34-0.91-20.33,6.11c-3.76,5.29-6.56,11.26-9.79,16.93c-7.03,4.79-14.09-0.38-20.58-0.33
		c-9.94,5.53-12.63,15.94-18.73,23.68c-0.76,0.96-1.16,2.48-1.14,3.73c0.3,16.56-1.84,33.09,1.75,49.67
		c4.67,21.62,5.63,43.37-1.88,64.87c-1.8,5.15-3.44,10.06-7.57,13.71c-6.62,5.84-7.87,13.34-7.66,21.71
		c0.34,13.32,0.24,26.66,0.02,39.99c-0.12,7.25-0.85,14.49-1.36,22.6c-4.23,1.53-8.06,2.41-11.39,4.23
		c-9.71,5.31-17.58,11.97-17.16,24.63c0.39,11.49-7.05,18.07-15.86,23.52c-9.84,6.09-18.13,13.2-21.09,25.32
		c-0.82,3.35-4.36,6.91-7.58,8.59c-5.83,3.04-12.21,5.38-18.62,6.87c-19.7,4.58-31.36-0.68-37.78-19.35
		c-9.87-28.74-24.27-55.72-31.83-85.4c-3.4-13.35-10.34-25.77-15.47-38.7c-4.29-10.83-11.46-19.54-20.12-26.91
		c-11.25-9.58-16.61-21.91-19.43-36.01c-2.33-11.68-6.06-23.07-5.19-35.27c0.22-3.13-0.87-6.64-2.26-9.54
		c-5.71-11.9-9.47-24.62-16.67-35.96c-7.08-11.14-13.76-22.69-16.76-35.94c-1-4.43-3.57-8.58-5.78-12.66
		c-9.31-17.28-13.77-35.75-13.47-55.33c0.12-7.52-2.3-13.71-5.65-20.55c-7.54-15.38-13.66-31.34-14.79-49.13
		c-0.91-14.37-4.84-28.57-7.76-42.78c-3.26-15.88-4.17-31.77,0.57-47.38c3.42-11.27,3.13-21.88-0.27-33.17
		c-3.42-11.37-4.97-23.3-7.46-34.95c-0.54-2.53-1.36-5.07-2.48-7.39c-0.48-0.99-2.22-2.15-3.15-1.97c-1.72,0.34-4.36,1.31-4.68,2.52
		c-1.13,4.4-2.22,9.06-1.96,13.54c1.04,17.31-7.31,30.97-17.59,43.21c-16.22,19.32-43.43,19.8-61.3,1.88
		c-9.37-9.39-18.59-18.75-26.46-29.72c-7.61-10.6-18.32-18.96-28.82-29.47c0.11-2.09,0.32-5.92,0.59-10.87
		c13.12-0.67,25.54-1.3,37.53-1.92c1.52-4.3-0.21-5.64-3.08-6.59c-6.25-2.07-12.67-3.85-18.59-6.64
		c-13.21-6.23-26.04-13.25-39.25-19.48c-8.36-3.94-17.34-6.59-25.66-10.6c-14.57-7.02-28.26-14.94-30.79-33.51
		c-0.58-4.23-3.77-8.39-6.56-11.95c-3.26-4.17-7.28-7.78-11.18-11.41c-6.44-5.99-11.44-12.25-12.77-21.75
		c-1.45-10.33-7.5-14.98-17.81-15.18c-19.98-0.4-39.98-0.26-59.97,0c-3.86,0.05-7.69,1.74-11.57,2.51
		c-5.2,1.02-10.5,2.93-15.65,2.62c-21.72-1.28-41.84,5.37-62.24,11.16c-19.6,5.56-39.15,6.26-58.27-2.63
		c-12.16-5.65-24.86-9.74-38.49-8.23c-17.69,1.97-34.27-4.11-51-7.51c-22.6-4.6-44.59-12.27-66.76-18.9
		c-5.03-1.5-10.56-3.15-14.39-6.44c-10.36-8.88-21.75-8.2-34.59-6c-4.95,27.79-1.97,52.91,19.8,73.16c3.41,3.18,6.74,6.46,9.9,9.89
		c14.91,16.2,33.84,22.59,55.31,23.21c8.55,0.25,17.3-1.41,26.52,2.21c0.65,2.82,1.88,5.93,2.01,9.08
		c0.41,9.86,4.55,17.94,11.01,25.05c3.13,3.45,6.52,6.69,9.49,10.27c10.79,13,10.67,28.2,7.81,43.56c-0.66,3.54-3.86,6.88-6.53,9.71
		c-7.32,7.75-15,15.16-22.5,22.73c-22.72,22.94-36.88,54.18-39.4,86.81c-0.2,2.65-0.43,5.32-0.97,7.92
		c-2,9.58-6.35,15.32-15.71,15.17c-15.72-0.25-23.97,9.56-32.45,19.99c-5.84,7.19-11.95,14.16-17.59,21.5
		c-5.49,7.15-12.91,8.85-21.24,8.74c-4-0.05-8,0.2-11.99,0.02c-10.93-0.5-18.35,5.02-20.85,14.94
		c-2.76,10.98-8.89,15.16-19.67,15.86c-6.42,0.42-12.93,2.61-18.97,5.06c-7.36,2.98-14.24,7.16-21.41,10.64
		c-2.95,1.43-6.03,3.01-9.2,3.46c-14.39,2-28.8,3.9-43.26,5.26c-9.25,0.87-15.97,5.72-16.93,14.18
		c-2.13,18.91-15.49,27.98-30.12,33.96c-13.87,5.67-28.44,10.15-43.71,12.78c-15.98,2.76-32.13,8.32-44.02,21.16
		c-9.02,9.74-19.77,17.94-26.11,30.04c-3.13,5.98-8.74,7.88-15.05,8.01c-10.66,0.22-21.33,0.66-31.97,0.29
		c-10.42-0.36-19.43,2.5-28.09,8.26c-11.57,7.71-23.64,14.69-35.55,21.88c-2.82,1.7-5.79,4-8.86,4.32
		c-17.36,1.78-33.08,9.45-49.81,13.53c-16.61,4.05-33.09,2.66-49.63,1.99c-7.03-0.28-12.43-4.56-14.75-11.68
		c-2.86-8.8-5.93-17.34-6.76-26.92c-1.31-15.06-5.44-29.84-7.41-44.87c-3.52-26.9-15.64-50.48-27.07-74.43
		c-8.56-17.92-16.12-36.33-24.9-54.14c-13.49-27.34-29.23-53.43-46.68-78.43c-3.78-5.42-8.67-10.12-13.35-14.85
		c-15.94-16.1-31.75-32.36-48.16-47.97c-7.02-6.68-10.94-14.49-14.46-23.26c-6.57-16.38-9.31-33.02-8.63-50.64
		c0.45-11.55,1.1-22.63,8.89-31.31c-9.66-21.83-22.38-40.14-40.6-54.34c-6.79-5.29-13.56-10.59-20.27-15.98
		c-8.81-7.08-14.11-15.83-12.73-27.62c0.76-6.49-2.07-11.53-6.16-16.23c-10.89-12.51-21.79-25.02-32.4-37.76
		c-3.36-4.04-6.19-8.63-8.66-13.29c-4.98-9.38-9.94-18.82-14.2-28.54c-6.51-14.84-15.34-27.84-27.49-38.62
		c-4.48-3.97-8.33-8.65-12.83-12.61c-7.34-6.47-10.11-14.98-6.89-23.48c7.7-20.27-1.1-37.62-7.88-55.46
		c-1.88-4.95-4.92-9.44-6.98-14.33c-9.09-21.61-7.56-44.29-6.2-66.89c0.19-3.2,1.52-6.45,2.85-9.44
		c11.54-26.06,20.74-53.1,33.74-78.59c6.27-12.3,9.85-25.97,14.76-38.98c2.58-6.82,5.24-13.62,8.18-20.3
		c3.52-8,6.19-16.06,5.47-25.01c-0.27-3.29-0.41-6.87,0.57-9.94c6.05-18.83,4.03-38.17,4.04-57.38c0.01-9.31-0.15-18.5,3.41-27.54
		c1.52-3.85,0.25-8.8,0.25-12.26c-9.42,1.88-17.68,4.1-26.08,5.01c-6.64,0.72-13.15-0.81-18.71-5.4
		c-6.98-5.76-15.17-4.96-22.73-2.02c-10.49,4.08-20.94,8.57-28.79,17.31c-3.56,3.96-7.69,7.41-11.22,11.39
		c-5.68,6.38-12.74,8.66-21.12,9.65c-17.73,2.09-28.86-7.01-38.35-20.16c-4.64-6.44-9.46-12.88-15.05-18.45
		c-3.08-3.06-7.87-5.89-12.03-6.1c-11.8-0.58-23.77-1.44-36.18,0.91c-0.78,5.34-1.15,9.88-2.15,14.28
		c-1.81,8.03-6.98,13.03-15.22,13.46c-9.96,0.52-20.01,0.72-29.93-0.1c-4.26-0.35-8.55-3.18-12.33-5.65
		c-3.29-2.15-5.64-5.71-8.84-8.05c-4.23-3.09-8.77-7.69-13.39-7.96c-15-0.88-27.15-9.43-40.92-13.18
		c-7.79-2.12-12.97-5.15-15.55-13.29c-3.37-10.6-11.41-19.23-12.6-31.08c-0.38-3.82-5.2-7.56-8.63-10.61
		c-3.43-3.04-7.75-5.06-11.54-7.73c-5.47-3.86-5.77-8.48-0.71-13.15C19.46,1078.6,21.94,1077.6,24.77,1075.89z M1029.82,1661.75
		c0.33,10.7,0.13,19.32,1,27.83c0.89,8.68,3.58,16.8,12.7,21.94c3.56-1.66,7.37-2.9,10.58-5.04c5.5-3.66,10.62-7.89,16.23-12.12
		c1.66,0,3.67,0.22,5.63-0.04c7.1-0.92,10.84,2.3,13.32,8.9c4.01,10.69,7.06,21.33,6.32,32.96c-0.46,7.2,0.23,14.47,0.42,22.27
		c6.46,1.42,12.07,2.65,18.21,4c0.45,5.16,0.73,9.72,1.26,14.25c0.59,5.11,3.02,8.66,8.61,9.15c28.64-13.68,33.03-13.83,69.66-1.85
		c4.7-4.33,10.16-9.06,15.27-14.14c19.35-19.23,38.61-38.56,57.85-57.9c8.39-8.44,16.04-17.9,29.74-17.54
		c2.4,0.06,4.9-1.87,7.29-3.01c12.47-5.98,17.62-16.71,13.2-27.39c-4.14-10.01-13.63-13.29-26.99-9.45
		c-16.7,4.79-32.46,11.98-46.88,21.36c-14.54,9.46-28.04,10.33-42.25,0.35c-6.58-4.62-13.7-7.66-21.85-8.86
		c-14.13-2.08-26.37-7.95-35.86-19.26c-13.13-15.66-29.63-25.91-49.41-31.91c-15.07-4.57-26.64-15.67-33.9-29.23
		c-7.12-13.3-11.86-28.02-16.49-42.48c-3.55-11.08-8.75-20.68-17.12-28.68c-5.29-5.06-10.23-10.49-15.63-15.42
		c-12.95-11.82-26.2-12.22-38.75-0.21c-8.35,7.99-17.09,14.58-28.46,17.39c-1.78,0.44-3.24,2.22-4.58,3.2
		c-7.64,14.32-0.69,26.43,6.21,37.48c8.03,12.88,16.25,25.51,23.19,39.1c3.74,7.32,6.67,14.28,7.35,22.34
		c0.1,1.22,1.08,2.36,1.65,3.55c4.96,1.71,9.91,3.43,14.65,5.07C997.99,1646.54,1008.35,1659.28,1029.82,1661.75z"/>
	<path d="M4744.01,1132.93c-4.1,6.35-7.28,11.28-10.2,15.8c0.25,7.72,5.05,10.96,12.03,14.21c4.53-3.95,9.67-8.02,14.33-12.59
		c13.3-13.07,26.96-25.83,39.4-39.69c10.14-11.3,17.91-24.75,28.19-35.91c12.58-13.65,17.7-30.94,25.02-47.02
		c5.99-13.15,9.15-27.58,8.89-42.52c-0.29-16.55-1.45-33.27,4.83-49.24c1.2-3.04,1.2-6.57,2.47-9.57c1.53-3.62,3.83-6.9,6.05-10.76
		c9.75-1.78,16.91,0.12,20.4,10.56c1.36,4.07,3,8.97,10.39,8.63c0.51-5.62-2.98-9.9-5.28-14.2c-2.36-4.41-0.82-7.72,1.58-10.94
		c2.65-3.57,6.48-4.39,10.69-3.11c3.18,0.97,6.38,1.93,9.47,3.14c4.1,1.6,6.81,4.97,6.63,9.13c-1.1,26.07,10.65,48.87,17.89,72.83
		c4.52,14.96,3.21,30.29,1.38,45.52c-0.3,2.53-1.44,5.3-3.05,7.26c-6.96,8.49-10.79,18.04-11.93,28.98c-0.3,2.92-2.8,5.88-4.91,8.27
		c-1.7,1.92-4.22,3.23-6.56,4.44c-16.05,8.31-21.86,23.13-22.51,39.49c-0.66,16.75-4.77,32.69-8.06,48.82
		c-1.51,7.4-2.06,14.19,0.05,21.51c1.63,5.66,2.2,11.67,2.82,17.57c1.18,11.18-1.26,20.9-10.5,28.6c-3.92,3.27-7.9,7.99-9.08,12.73
		c-2.82,11.29-9.79,12.93-20.68,11.13c-1.34-5.97-2.7-12.04-4.26-19.03c-3.08,1.14-6.07,1.38-7.7,2.99
		c-6.58,6.5-13.37,12.96-18.84,20.36c-3.92,5.3-8.05,6.13-14.76,4.59c-1.22-4.21-2.59-8.91-3.98-13.71
		c-7.11,2.17-5.33,7.66-5.52,11.86c-0.51,11.35-5.45,13.83-15.28,13.86c-5.93,0.02-11.89-0.83-17.79-1.64
		c-5.85-0.8-11.65-2.85-17.47-2.88c-10.39-0.05-17.9-3.63-22.29-13.41c-1.67-3.71-4.51-6.66-9.46-4.99
		c-2.83,3.33-0.98,6.23,1.25,8.7c5.36,5.92,7.28,12.51,4.6,20.7c-4.61,2.96-9.85,5.75-14.4,9.4c-4.67,3.74-7.91,8.46-9.42,14.77
		c-3.68,15.39-7.56,18.85-18.56,18.81c-11.47-0.03-21.3-8.23-23.38-20.55c-1.1-6.5-0.83-13.26-0.84-19.9
		c0-3.97,1.05-7.96,0.96-11.92c-0.26-11.51-11.21-19.25-22.38-15.95c-2.53,0.75-5.07,1.79-7.29,3.2c-7.67,4.91-16.22,5.72-24.91,5.3
		c-9.79-0.48-18.85,2.05-25.97,8.32c-6.71,5.91-14.06,6.7-22.19,6.93c-19.91,0.57-20.81,1.41-27.43,21.51
		c-0.19,0.57-0.77,1.01-2.03,2.6c-10.28,0-21.48,0-31.89,0c-3.35,4.83-0.99,7.32,1.74,9.16c3.81,2.56,7.96,4.61,12.22,7.03
		c2.44,11.64,5.36,23.2,16.62,30.18c-1.25,3.3-1.82,5.96-3.15,8.15c-12.09,19.88-21.49,40.96-28.87,63c-0.83,2.48-2.5,4.68-3.7,7.05
		c-8.74,17.25-8.72,18.45-26.76,10.64c-3.62-1.57-7.53-2.48-13.46-4.38c-6.61-14.62-12.91-30.91-11.61-49.34
		c6.57-4.4,12.43-8.34,18.2-12.2c-7.27-13.72-7.27-13.72-26.41-12.8c-0.57-5.08-1.4-10.21-1.67-15.38
		c-0.43-8.36,1.82-15.58,8.66-21.27c7.55-6.28,13.1-14.64,23.86-17.18c7.4-1.75,12.04-8.05,12.43-16.35c0.46-9.76,6.91-15.5,14-20.7
		c17.61-12.92,35.23-25.83,53.02-38.5c6.48-4.62,13.51-7.73,21.81-8.84c13.07-1.75,25.94-5.07,38.88-7.77
		c3.24-0.68,6.52-2.45,9.64-2.16c21.43,2.01,42.08-4.77,63.29-5.26c14.09-0.32,23.41-9.15,24.08-23.61
		c0.53-11.32,3.45-20.7,12.55-27.97c5.45-4.35,7.96-10.37,7.94-17.57c-0.01-3.25,0.96-6.61,2.05-9.72
		C4721.31,1130.34,4729.93,1127.51,4744.01,1132.93z"/>
	<path d="M4923.45,843.03c-20.26,16.24-20.26,16.24-37.17,17.79c1.59,8.88,11.09,15.74,6.64,26.21c-6.06,4.3-12.52,8.66-18.73,13.35
		c-8.09,6.11-16.59,7.16-27.25,3.21c-1.13-17.99-1.01-35.82-0.05-53.59c0.23-4.21,3.02-8.65,5.63-12.26
		c2.26-3.12,5.6-5.85,9.04-7.63c7.6-3.92,9.72-10,9.66-18.05c-0.04-5.13,1.56-10.27,2.24-14.25c11.02-8.42,20.11-2.85,29.16,0.95
		c10.2-4.11,14.43-11.53,13.94-21.9c-0.54-11.58,1.83-22.4,7.96-32.35c5.78-9.38,7-19.66,6.91-30.54
		c-0.09-11.12-1.75-22.46,1.98-34.85c4.66,0.5,9.36,0.05,13.28,1.59c10.81,4.25,19.16,12.06,25.47,21.6
		c12.75,19.27,28.58,34.71,50.33,43.46c3.07,1.23,6.09,2.69,8.9,4.44c9.92,6.15,20.56,8.77,32.27,7.98
		c5.86-0.4,11.8,0.44,18.64,0.77c0.98,4.24,2.5,7.9,2.57,11.58c0.23,11.96,0.56,23.98-0.32,35.89
		c-0.93,12.68-6.11,17.55-18.85,19.04c-6.57,0.77-13.3,0.9-19.91,0.49c-8.73-0.53-15.41,2.73-21.15,8.95
		c-4.95,5.37-10.22,10.46-15.22,15.78c-3.95,4.21-5.25,8.84-2.86,14.58c2.29,5.5,4.13,11.31,1.14,18.31
		c-12.18,4.68-23.79,4-33.95-6.12c-6.12-6.1-12.4-12.07-18.24-18.43C4947.12,849.87,4937.44,843.53,4923.45,843.03z"/>
	<path d="M4566.14,1373.89c-11.3,3.74-18.64,2.04-23.84-7.1c-2.56-4.5-6.18-8.4-8.99-12.13c0.78-17.55,11.16-30.78,17.41-44.95
		c1.51-0.67,2.1-1.16,2.7-1.17c8.52-0.18,17.35,1.05,25.48-0.79c8.14-1.84,15.42-7.19,23.38-10.17c10.8-4.04,13.39-3.78,30.02-0.84
		c4.59,16.01,1.4,30.78-8.7,44.15c-4.25,5.62-11.39,6.87-18,3.98c-1.8-0.79-3.49-1.92-5.06-3.13c-4.95-3.81-10.28-6.93-16.41-3.49
		c-6.96,3.91-13.72,8.53-15.44,17.17C4567.55,1361.23,4567.05,1367.16,4566.14,1373.89z"/>
</g>
</svg>
