<?xml version="1.0" standalone="no"?>
<!DOCTYPE svg PUBLIC "-//W3C//DTD SVG 20010904//EN"
 "http://www.w3.org/TR/2001/REC-SVG-20010904/DTD/svg10.dtd">
<svg version="1.0" xmlns="http://www.w3.org/2000/svg"
 width="857.000000pt" height="599.000000pt" viewBox="0 0 857.000000 599.000000"
 preserveAspectRatio="xMidYMid meet">

<g transform="translate(0.000000,599.000000) scale(0.100000,-0.100000)"
fill="#000000" stroke="none">
<path d="M3140 4673 c-8 -4 -21 -14 -30 -24 -8 -11 -48 -27 -91 -38 -42 -10
-89 -28 -105 -39 -29 -20 -134 -41 -228 -46 -57 -3 -81 -28 -49 -51 10 -9 13
-14 6 -15 -23 0 -14 -18 13 -24 32 -8 26 -30 -9 -34 -23 -3 -27 -8 -27 -35 0
-19 -9 -41 -25 -57 -30 -32 -25 -55 13 -63 46 -10 66 -30 58 -60 -7 -31 -44
-44 -76 -27 -17 9 -26 8 -45 -4 -35 -23 -61 -20 -89 11 -23 24 -28 26 -52 14
-19 -8 -30 -9 -38 -1 -18 18 -50 11 -72 -17 -21 -27 -24 -27 -56 -14 -18 7
-44 15 -58 18 -14 3 -40 19 -58 34 -18 16 -40 29 -49 29 -9 0 -25 7 -35 17
-15 13 -22 14 -44 4 -22 -10 -30 -9 -44 4 -25 23 -34 19 -87 -39 -27 -29 -59
-57 -71 -60 -16 -5 -22 -15 -22 -35 0 -37 -8 -43 -34 -26 -11 8 -27 15 -36 15
-20 0 -47 -70 -54 -141 -5 -47 -3 -61 15 -83 11 -14 29 -26 39 -26 26 0 70
-56 70 -89 0 -32 34 -81 55 -81 8 0 21 13 30 30 20 38 51 56 70 40 9 -8 33 -9
69 -5 48 6 55 5 65 -13 6 -12 11 -34 11 -51 0 -46 10 -61 40 -61 67 0 77 -24
28 -66 -31 -26 -33 -26 -36 -7 -3 21 -41 33 -110 33 -28 0 -36 -5 -45 -30 -8
-21 -18 -30 -40 -32 l-29 -3 36 -45 c20 -25 36 -54 36 -65 0 -13 15 -27 43
-41 40 -21 42 -24 39 -61 -3 -39 -2 -40 27 -35 25 3 37 -2 66 -31 19 -19 35
-45 35 -57 0 -20 -4 -22 -34 -16 -18 4 -41 4 -50 0 -24 -9 -20 -51 8 -69 20
-14 26 -31 40 -125 21 -136 20 -143 -24 -151 -19 -3 -63 -12 -97 -19 l-61 -14
-41 37 c-26 24 -51 37 -69 37 -44 0 -57 15 -57 62 1 67 12 94 60 148 51 57 54
66 25 75 -11 4 -37 24 -56 45 -35 37 -37 38 -89 33 l-53 -6 -71 67 c-59 55
-76 66 -105 66 -19 0 -38 -5 -41 -10 -4 -6 -19 0 -38 14 -33 25 -179 57 -194
43 -3 -4 9 -22 29 -40 43 -40 52 -65 39 -114 -15 -53 -42 -63 -172 -63 -114 0
-137 6 -269 65 -91 41 -112 40 -215 -11 -44 -22 -92 -37 -128 -41 -56 -6 -57
-5 -102 36 -34 31 -53 41 -79 41 -37 0 -66 -21 -66 -47 0 -9 -7 -24 -16 -34
-23 -25 -11 -69 19 -70 l22 0 -23 -11 c-26 -13 -28 -26 -6 -57 12 -16 15 -37
12 -77 -3 -37 -1 -58 8 -65 7 -6 18 -26 24 -45 12 -34 51 -64 85 -64 9 0 28
-9 42 -20 14 -11 41 -20 59 -20 28 0 35 4 40 26 6 24 10 26 45 21 27 -4 48
-16 72 -41 19 -20 39 -36 44 -36 6 0 27 13 48 30 48 38 70 44 105 30 21 -9 33
-9 50 0 23 12 23 13 4 -165 -3 -27 -27 -103 -55 -168 -55 -134 -59 -170 -28
-249 12 -30 18 -64 15 -79 -4 -20 2 -35 25 -60 17 -19 40 -52 51 -73 11 -22
38 -61 59 -88 21 -28 39 -58 39 -68 0 -10 19 -34 41 -54 63 -54 82 -90 68
-129 -19 -55 2 -102 82 -186 59 -62 81 -95 135 -206 49 -101 68 -152 79 -216
8 -45 19 -87 24 -92 21 -21 129 -2 203 36 47 24 87 37 112 37 32 0 44 6 75 40
29 33 49 44 106 60 67 18 105 45 105 75 0 8 19 16 47 20 26 4 60 13 75 21 15
8 36 14 47 14 11 0 28 11 37 25 11 17 25 25 45 25 21 0 36 10 60 40 18 22 40
40 49 40 22 0 40 20 40 45 0 33 45 118 79 149 37 36 42 83 11 111 -11 10 -20
28 -20 40 0 19 -7 23 -51 28 -28 4 -62 13 -76 22 -36 24 -63 75 -63 120 l0 39
-70 -69 c-69 -68 -72 -70 -123 -71 -29 -1 -61 -3 -72 -5 -15 -3 -21 2 -23 19
-2 12 -10 22 -18 22 -10 0 -14 12 -14 38 0 20 -5 44 -10 52 -8 13 -13 12 -41
-4 -36 -21 -49 -12 -49 37 0 20 -7 30 -24 37 -13 5 -27 18 -31 29 -3 12 -10
21 -15 21 -13 0 -80 128 -80 153 0 29 50 67 88 67 36 0 76 -41 97 -100 19 -53
38 -76 86 -101 20 -10 50 -29 66 -43 17 -14 51 -32 78 -41 45 -16 49 -16 95 4
27 12 60 21 75 21 29 0 43 -24 28 -49 -9 -14 -6 -19 17 -30 49 -21 164 -51
197 -51 18 0 53 -7 78 -16 42 -14 52 -14 109 0 81 21 256 22 256 2 0 -7 7 -19
16 -27 8 -7 24 -30 35 -50 16 -32 34 -45 106 -80 82 -40 86 -43 56 -47 -18 -2
-33 -6 -33 -10 0 -4 24 -33 54 -65 38 -41 60 -57 79 -57 30 0 65 33 73 70 11
49 14 54 26 42 6 -6 14 -70 19 -144 4 -76 14 -150 22 -173 9 -22 18 -58 22
-80 4 -22 24 -76 44 -120 21 -45 41 -101 45 -125 4 -25 22 -67 41 -95 19 -27
53 -98 75 -157 34 -88 46 -109 65 -114 25 -6 65 10 65 26 0 6 14 22 30 37 17
14 30 34 30 44 0 10 11 26 25 35 22 14 25 24 25 71 0 30 7 68 16 85 13 25 15
47 9 105 -8 90 5 133 42 133 13 0 26 6 29 14 3 8 19 19 35 25 16 5 34 21 40
34 6 14 42 49 81 78 38 29 76 65 84 81 8 15 33 37 57 49 56 29 77 48 77 73 0
36 24 69 55 79 17 5 70 11 120 13 93 5 115 14 115 45 0 11 6 19 13 19 19 0 47
-33 47 -54 0 -25 18 -56 61 -103 22 -24 39 -49 39 -57 0 -8 20 -38 45 -67 50
-59 63 -101 45 -153 -13 -41 -8 -53 27 -67 20 -8 34 -4 69 16 23 14 51 36 61
49 l19 24 22 -41 c12 -23 27 -69 33 -102 14 -77 42 -126 82 -145 21 -10 33
-23 35 -40 6 -47 11 -54 28 -39 10 8 14 26 12 53 -3 38 -1 41 22 41 20 0 24
-4 22 -22 -3 -21 1 -23 39 -23 36 0 46 -5 80 -42 22 -24 39 -50 39 -59 0 -21
17 -34 55 -43 44 -11 65 -34 65 -73 0 -20 6 -36 14 -39 21 -8 72 22 97 56 12
16 35 32 51 36 16 3 54 22 84 42 57 40 74 72 74 145 0 65 -30 178 -54 199 -11
10 -42 37 -68 59 -59 51 -128 156 -128 195 0 49 42 97 118 137 39 21 81 37 94
37 33 0 56 -27 60 -70 2 -27 7 -35 23 -35 14 0 22 10 30 37 5 20 13 39 17 43
7 7 42 17 160 45 42 9 87 25 99 34 14 10 44 16 75 16 63 0 84 7 84 27 0 20
148 172 178 184 15 6 22 17 22 34 0 13 14 47 30 73 17 27 30 54 30 60 0 6 18
29 39 50 30 30 41 49 46 85 4 26 11 50 16 53 12 7 12 44 0 44 -5 0 -12 30 -16
67 -5 51 -14 75 -35 102 -15 20 -31 50 -34 66 -4 17 -28 51 -53 77 -36 36 -44
51 -40 70 9 35 111 130 159 148 23 8 43 20 45 25 3 10 -81 45 -107 45 -6 0
-23 -9 -37 -20 -46 -36 -113 -16 -113 33 0 9 -6 17 -14 17 -21 0 -46 28 -46
50 0 14 10 21 36 26 26 5 41 16 59 44 14 22 41 45 67 57 24 12 52 30 62 42 11
12 25 21 33 21 18 0 17 -59 -2 -84 -20 -27 -20 -76 1 -76 8 0 30 11 47 24 72
55 142 53 191 -5 26 -31 35 -82 16 -94 -20 -12 -9 -25 20 -25 48 0 70 -30 70
-97 0 -32 -7 -80 -15 -108 -17 -55 -13 -95 10 -95 7 0 47 15 87 33 162 74 171
164 33 319 -77 86 -79 104 -17 133 48 24 66 46 88 107 16 48 73 137 117 185
l29 31 -13 66 c-12 62 -11 68 8 94 23 31 56 39 90 21 34 -18 50 2 74 94 11 42
31 98 44 123 24 46 31 75 19 87 -3 3 -38 -10 -77 -29 -88 -42 -128 -44 -156
-8 -12 15 -21 38 -21 52 0 26 -67 102 -91 102 -16 1 -108 32 -125 42 -6 4 -16
33 -24 65 -7 32 -26 85 -43 118 -16 33 -38 84 -48 114 -24 67 -33 78 -72 86
-18 3 -48 13 -68 22 -30 12 -46 13 -86 4 -76 -16 -158 -49 -179 -72 -17 -19
-17 -20 4 -26 32 -8 28 -32 -28 -143 -27 -55 -50 -111 -50 -124 0 -31 -52 -76
-88 -76 -15 0 -47 11 -70 25 -33 19 -48 22 -62 15 -31 -16 -57 -12 -90 16
l-31 27 -27 -26 c-15 -13 -42 -32 -60 -41 -48 -25 -180 -56 -236 -56 -46 0
-53 4 -93 45 -23 25 -46 45 -50 45 -5 0 -28 14 -52 30 -52 35 -69 37 -104 10
-59 -46 -156 -14 -197 65 -31 61 -66 87 -121 90 -25 1 -47 9 -54 19 -25 33
-64 18 -105 -43 -21 -31 -22 -37 -11 -82 14 -55 3 -89 -29 -89 -11 0 -20 -4
-20 -10 0 -5 -12 -7 -27 -4 -16 3 -57 6 -93 7 -61 2 -66 4 -85 34 -11 18 -31
35 -45 38 -14 3 -42 11 -62 17 -34 10 -41 8 -75 -15 -21 -14 -60 -36 -88 -49
-27 -13 -54 -28 -60 -35 -5 -6 -30 -18 -55 -26 -25 -8 -57 -21 -73 -28 -24
-11 -30 -10 -50 9 -16 15 -36 22 -64 22 -36 0 -45 5 -87 53 -25 28 -55 63 -66
75 -23 26 -60 24 -92 -5 -22 -20 -47 -11 -92 34 -20 20 -37 34 -38 32 -2 -2
-8 -13 -14 -23 -6 -11 -15 -21 -21 -23 -12 -4 -106 133 -147 215 -15 29 -43
70 -62 92 -27 29 -34 44 -29 61 6 18 4 20 -17 14 -73 -23 -127 -48 -132 -60
-3 -9 -18 -15 -37 -15 -26 0 -30 3 -26 19 4 16 -2 21 -32 26 -20 4 -41 11 -48
16 -6 6 -29 9 -50 7 -37 -3 -38 -2 -41 32 -5 64 -20 87 -60 94 -45 7 -102 7
-122 -1z"/>
<path d="M8180 3545 c0 -24 -4 -54 -9 -67 -5 -13 -12 -36 -16 -52 -5 -24 -10
-27 -31 -23 -20 3 -27 -1 -35 -20 -5 -14 -18 -37 -29 -51 -23 -29 -27 -90 -6
-98 8 -3 26 2 40 11 20 14 24 21 16 35 -14 26 -13 30 9 30 11 0 23 5 26 10 13
20 53 9 89 -25 46 -43 66 -45 66 -7 0 38 37 72 78 72 26 0 35 5 43 27 17 46 8
66 -34 75 -59 12 -109 42 -145 87 -44 55 -62 54 -62 -4z"/>
<path d="M8136 3223 c-3 -3 -3 -18 1 -32 l6 -26 -21 25 c-29 35 -41 19 -51
-71 -11 -103 -37 -155 -119 -240 -61 -65 -72 -72 -86 -60 -13 11 -14 16 -4 29
11 12 11 14 0 11 -11 -4 -31 -36 -72 -119 -4 -9 -29 -18 -61 -22 -156 -22
-167 -26 -229 -73 -33 -25 -60 -52 -60 -58 0 -7 -16 -25 -35 -40 -39 -31 -46
-62 -15 -70 23 -6 27 -37 5 -37 -31 0 -8 -76 27 -89 21 -8 26 -3 58 63 32 65
34 73 21 99 -7 16 -19 31 -27 34 -26 10 -14 23 21 23 24 0 35 5 35 15 0 14 28
25 125 49 70 17 85 12 85 -29 0 -18 3 -40 6 -49 10 -25 43 -19 54 9 5 14 17
28 26 32 11 4 14 13 10 29 -7 27 5 31 24 9 8 -9 29 -15 55 -15 36 0 44 4 49
23 6 20 8 20 14 4 7 -16 10 -16 32 8 27 28 40 32 40 10 0 -26 24 -16 44 18 13
22 20 55 21 107 3 75 25 150 44 150 6 0 20 21 31 48 21 46 21 49 5 112 -10 36
-20 77 -22 92 -5 26 -25 43 -37 31z"/>
<path d="M7630 2586 c-37 -14 -45 -16 -59 -16 -12 0 -31 -57 -25 -75 11 -28
35 -26 46 6 10 29 13 31 49 26 35 -5 39 -3 48 25 17 49 4 57 -59 34z"/>
</g>
</svg>
